<?xml version="1.0" standalone="no"?><!DOCTYPE svg PUBLIC "-//W3C//DTD SVG 1.1//EN" "http://www.w3.org/Graphics/SVG/1.1/DTD/svg11.dtd"><svg t="1674404391839" class="icon" viewBox="0 0 1024 1024" version="1.1" xmlns="http://www.w3.org/2000/svg" p-id="22140" xmlns:xlink="http://www.w3.org/1999/xlink" width="16" height="16"><path d="M904.533333 512l106.666667-106.666667c17.066667-17.066667 17.066667-42.666667 0-59.733333s-42.666667-17.066667-59.733333 0l-106.666667 106.666667L733.866667 341.333333c-17.066667-17.066667-42.666667-17.066667-59.733334 0s-17.066667 42.666667 0 59.733334l106.666667 106.666666-106.666667 106.666667c-17.066667 17.066667-17.066667 42.666667 0 59.733333 8.533333 8.533333 21.333333 12.8 29.866667 12.8s21.333333-4.266667 29.866667-12.8l106.666666-106.666666 106.666667 106.666666c8.533333 8.533333 21.333333 12.8 29.866667 12.8s21.333333-4.266667 29.866666-12.8c17.066667-17.066667 17.066667-42.666667 0-59.733333L904.533333 512zM512 42.666667C354.133333 42.666667 238.933333 196.266667 200.533333 256H89.6C38.4 256 0 298.666667 0 345.6v328.533333c0 51.2 38.4 89.6 89.6 89.6h110.933333C238.933333 823.466667 354.133333 981.333333 512 981.333333c25.6 0 42.666667-17.066667 42.666667-42.666666V85.333333c0-25.6-17.066667-42.666667-42.666667-42.666666z m-42.666667 849.066666c-119.466667-34.133333-209.066667-187.733333-209.066666-187.733333-8.533333-12.8-21.333333-21.333333-38.4-21.333333H89.6c-4.266667 0-4.266667 0-4.266667-4.266667V345.6s0-4.266667 4.266667-4.266667h132.266667c17.066667 0 29.866667-8.533333 38.4-21.333333 25.6-46.933333 110.933333-157.866667 209.066666-187.733333v759.466666z" p-id="22141" fill="#e6e6e6"></path></svg>