<?xml version="1.0" standalone="no"?><!DOCTYPE svg PUBLIC "-//W3C//DTD SVG 1.1//EN" "http://www.w3.org/Graphics/SVG/1.1/DTD/svg11.dtd"><svg t="1674373056171" class="icon" viewBox="0 0 1024 1024" version="1.1" xmlns="http://www.w3.org/2000/svg" p-id="7855" xmlns:xlink="http://www.w3.org/1999/xlink" width="16" height="16"><path d="M474.624 921.6a51.2 51.2 0 0 0 37.376-88.064L176.128 512 512 190.464a51.2 51.2 0 0 0-72.704-73.728l-372.224 358.4a51.2 51.2 0 0 0 0 73.728l372.224 358.4a51.2 51.2 0 0 0 35.328 14.336z" fill="#e6e6e6" p-id="7856"></path><path d="M921.6 921.6a51.2 51.2 0 0 0 35.328-88.064L623.104 512l333.824-321.536a51.2 51.2 0 1 0-71.168-73.728l-373.76 358.4a51.2 51.2 0 0 0 0 73.728l372.224 358.4A51.2 51.2 0 0 0 921.6 921.6z" fill="#e6e6e6" p-id="7857"></path></svg>