<?xml version="1.0" standalone="no"?><!DOCTYPE svg PUBLIC "-//W3C//DTD SVG 1.1//EN" "http://www.w3.org/Graphics/SVG/1.1/DTD/svg11.dtd"><svg t="1673769368669" class="icon" viewBox="0 0 1328 1024" version="1.1" xmlns="http://www.w3.org/2000/svg" p-id="1832" xmlns:xlink="http://www.w3.org/1999/xlink" width="20.75" height="16"><path d="M122.201079 535.002054a569.529445 459.836985 0 1 0 1139.058889 0 569.529445 459.836985 0 1 0-1139.058889 0Z" fill="#db5a6b" p-id="1833"></path><path d="M126.170532 689.888193l-14.115764 1.39415c-43.838257 2.807662-82.235459-34.079211-85.314206-81.983737l-3.717732-58.089564c-3.078747-47.904527 30.264663-89.399838 74.122284-92.226864-20.950969 2.652757 8.074449 233.539409 29.025418 230.906015zM496.220415 88.041588c-23.235825-44.903233-31.426454-84.133051-60.393783-87.88951s-92.672217 62.485007-92.672217 153.491991" fill="#db5a6b" p-id="1834"></path><path d="M878.817644 894.053646l123.246691 0 0 123.246691-123.246691 0 0-123.246691Z" fill="#db5a6b" p-id="1835"></path><path d="M354.404427 894.053646l123.246691 0 0 123.246691-123.246691 0 0-123.246691Z" fill="#db5a6b" p-id="1836"></path><path d="M97.66792 697.420473a94.259999 94.259999 0 0 1-93.71783-87.966962l-3.737095-58.089564a94.279362 94.279362 0 0 1 87.773331-99.817233 6.719026 6.719026 0 0 1 0.871343 13.399326A80.860673 80.860673 0 0 0 13.612321 550.511967l3.737095 58.089564a80.802583 80.802583 0 0 0 85.449748 75.245348l15.335645-1.452239a6.719026 6.719026 0 1 1 1.277971 13.360599l-15.645456 1.490966c-2.052498 0.096816-4.163085 0.174269-6.099404 0.174268z" fill="#db5a6b" p-id="1837"></path><path d="M658.174119 1001.538702c-153.666259 0-298.193093-48.40797-406.936756-136.161937-109.189016-88.121868-169.311715-205.48215-169.311715-330.374711s60.025882-242.23348 169.311715-330.394075c108.763026-87.812057 253.270497-136.161937 406.936756-136.161937s298.193093 48.40797 406.936756 136.161937c109.169653 88.160594 169.292351 205.48215 169.292351 330.394075s-60.142062 242.252843-169.292351 330.374711c-108.763026 87.812057-253.28986 136.161937-406.936756 136.161937z m0-919.751423c-310.333812 0-562.829782 203.313473-562.829782 453.098596s252.49597 453.098596 562.829782 453.098596 562.810418-203.313473 562.810418-453.098596S968.507931 81.864731 658.174119 81.864731z" fill="#db5a6b" p-id="1838"></path><path d="M306.325632 331.766034m-54.836548 0a54.836548 54.836548 0 1 0 109.673096 0 54.836548 54.836548 0 1 0-109.673096 0Z" fill="#db5a6b" p-id="1839"></path><path d="M287.872514 393.321608a61.555574 61.555574 0 1 1 61.516848-61.555574 61.613664 61.613664 0 0 1-61.516848 61.555574z m0-109.692459a48.136885 48.136885 0 1 0 48.136885 48.136885 48.175611 48.175611 0 0 0-48.136885-48.136885zM421.381694 1024h-44.264247a46.258656 46.258656 0 0 1-46.200566-46.200566v-44.264248a46.239293 46.239293 0 0 1 46.200566-46.200566h44.264247a46.239293 46.239293 0 0 1 46.123114 46.200566v44.264248a46.258656 46.258656 0 0 1-46.123114 46.200566z m-44.264247-123.246691a32.917419 32.917419 0 0 0-32.781877 32.781877v44.264248a32.917419 32.917419 0 0 0 32.781877 32.762514h44.264247a32.917419 32.917419 0 0 0 32.781877-32.762514v-44.264248a32.917419 32.917419 0 0 0-32.781877-32.781877zM949.086653 1024h-50.867094a42.947551 42.947551 0 0 1-42.889461-42.908824V930.224081a42.928187 42.928187 0 0 1 42.889461-42.889461h50.867094a42.947551 42.947551 0 0 1 42.908824 42.889461v50.867095a42.947551 42.947551 0 0 1-42.908824 42.908824z m-50.867094-123.246691a29.509498 29.509498 0 0 0-29.470772 29.470772v50.867095a29.490135 29.490135 0 0 0 29.470772 29.470772h50.867094a29.490135 29.490135 0 0 0 29.470772-29.470772V930.224081a29.490135 29.490135 0 0 0-29.470772-29.470772zM317.982271 172.871714a6.699663 6.699663 0 0 1-6.699663-6.719026c0-66.164013 32.336524-118.115446 60.025882-142.396884 14.677296-12.895883 28.947966-19.208282 40.217342-17.73668 25.307687 3.272379 36.286614 27.882991 50.208746 59.03836 4.647165 10.398032 9.429872 21.125238 15.277555 32.413977a6.719026 6.719026 0 1 1-11.927724 6.157493c-6.021951-11.617913-11.11447-23.02283-15.606729-33.091688-12.682888-28.386433-21.841676-48.892049-39.675172-51.215632-7.16438-0.929433-18.240123 4.49226-29.625677 14.522391-25.598134 22.480661-55.475533 70.617546-55.475534 132.308663a6.719026 6.719026 0 0 1-6.719026 6.719026zM1281.320231 543.289498c-25.675587 0-52.280607-15.761635-56.153245-18.16267a6.707408 6.707408 0 1 1 7.028837-11.424281c0.445353 0.271085 44.922596 27.282732 68.100332 10.824022 17.097695-12.160082 19.944084-46.762099 8.229355-100.107681a6.719026 6.719026 0 0 1 13.108878-2.885115c13.147605 59.870977 8.577892 98.190726-13.554232 113.932997a45.30986 45.30986 0 0 1-26.759925 7.822728z" fill="#db5a6b" p-id="1840"></path></svg>