<?xml version="1.0" standalone="no"?><!DOCTYPE svg PUBLIC "-//W3C//DTD SVG 1.1//EN" "http://www.w3.org/Graphics/SVG/1.1/DTD/svg11.dtd"><svg t="1674390687277" class="icon" viewBox="0 0 1024 1024" version="1.1" xmlns="http://www.w3.org/2000/svg" p-id="8863" xmlns:xlink="http://www.w3.org/1999/xlink" width="16" height="16"><path d="M671.869388 736.130612c-5.22449 0-10.44898-2.089796-14.628572-6.269388-8.359184-8.359184-8.359184-21.420408 0-29.779591 103.967347-103.967347 103.967347-272.718367 0-376.685715-8.359184-8.359184-8.359184-21.420408 0-29.779591 8.359184-8.359184 21.420408-8.359184 29.779592 0 120.163265 120.163265 120.163265 315.559184 0 435.722449-4.702041 4.702041-9.926531 6.791837-15.15102 6.791836z" fill="#e6e6e6" p-id="8864"></path><path d="M689.632653 900.702041c-7.314286 0-14.628571-4.179592-18.285714-10.971429-5.746939-9.926531-1.567347-22.987755 8.359183-28.212245 128.522449-69.485714 208.457143-203.755102 208.457143-349.518367 0-145.763265-79.934694-280.032653-208.457143-349.518367-9.926531-5.746939-14.106122-18.285714-8.359183-28.212245 5.746939-9.926531 18.285714-14.106122 28.212245-8.359184C841.665306 202.710204 929.959184 350.563265 929.959184 512c0 161.436735-88.293878 309.289796-230.4 386.089796-3.134694 1.567347-6.269388 2.612245-9.926531 2.612245zM471.771429 917.420408c-20.37551 0-39.706122-8.359184-53.812245-24.032653l-134.269388-148.37551c-2.089796-2.089796-4.702041-3.657143-7.836735-3.657143H177.632653c-45.97551 0-83.591837-37.616327-83.591837-83.591837v-292.571428c0-45.97551 37.616327-83.591837 83.591837-83.591837h110.236735c3.134694 0 6.269388-1.567347 7.836734-3.657143l121.730613-145.763265c18.808163-22.465306 49.110204-31.346939 77.322449-21.942857 27.689796 8.881633 45.97551 31.869388 48.065306 60.604081V851.591837c-2.089796 28.734694-19.853061 52.244898-47.542857 61.648979-7.314286 2.612245-15.673469 4.179592-23.510204 4.179592zM177.632653 323.395918c-22.987755 0-41.795918 18.808163-41.795918 41.795919v292.571428c0 22.987755 18.808163 41.795918 41.795918 41.795919h98.220408c14.628571 0 28.734694 6.269388 38.661225 17.240816l134.269387 148.37551c9.926531 10.971429 23.510204 11.493878 33.436735 8.359184 4.179592-1.567347 18.285714-7.836735 19.330612-25.077551V177.110204v-3.134694c-1.044898-16.718367-15.15102-22.465306-19.330612-24.032653-9.404082-3.134694-22.987755-2.089796-32.391837 8.881633L328.097959 304.587755c-9.926531 12.016327-24.555102 18.808163-40.228571 18.808163H177.632653z" fill="#e6e6e6" p-id="8865"></path></svg>